<svg width="669" height="793" viewBox="0 0 669 793" fill="none" xmlns="http://www.w3.org/2000/svg">
    <path d="M358.348 14.998C342.636 5.74723 323.134 5.78238 307.456 15.0898L24.4764 183.079C9.30212 192.087 0 208.427 0 226.074V564.932C0 582.526 9.24706 598.825 24.3494 607.851L308.176 777.48C323.955 786.91 343.635 786.922 359.425 777.511L644.099 607.842C659.231 598.823 668.5 582.507 668.5 564.892V226.193C668.5 208.482 659.131 192.093 643.868 183.107L358.348 14.998Z" fill="#32BA58"/>
    <path fill-rule="evenodd" clip-rule="evenodd" d="M351 227C351.255 229.467 352.255 231.467 354 233C355.999 237.997 357.999 242.997 360 248C360.092 250.348 361.092 252.014 363 253C367.128 264.786 372.295 276.119 378.5 287C379.626 291.906 381.292 296.573 383.5 301C385.906 305.851 388.573 310.517 391.5 315C391.833 316.667 392.167 318.333 392.5 320C407.001 348.029 421.501 376.029 436 404C436.092 406.348 437.092 408.014 439 409C439 409.333 439 409.667 439 410C439.092 412.348 440.092 414.014 442 415C451.09 433.492 460.756 451.825 471 470C471.092 472.348 472.092 474.014 474 475C477.333 481.667 480.667 488.333 484 495C485.667 498.667 484.667 499.667 481 498C472.005 493.693 462.838 489.693 453.5 486C451.734 485.267 449.901 484.933 448 485C447.889 484.383 447.556 483.883 447 483.5C444.015 482.632 441.015 482.299 438 482.5C438.971 483.981 440.304 484.815 442 485C451.262 490.843 460.595 496.509 470 502C480.949 510.279 491.616 518.946 502 528C509.688 542.967 517.521 557.967 525.5 573C529.561 577.682 532.394 583.015 534 589C518.206 580.674 502.206 572.34 486 564C485.014 562.092 483.348 561.092 481 561C448.717 544.082 414.717 531.415 379 523C379.521 519.019 379.854 515.019 380 511C381.325 507.055 381.992 502.722 382 498C381.992 493.278 381.325 488.945 380 485C379.01 462.311 370.01 443.645 353 429C349.841 426.293 346.174 424.959 342 425C340.103 423.695 337.769 423.029 335 423C332.231 423.029 329.897 423.695 328 425C321.418 426.578 315.752 429.745 311 434.5C306.442 440.73 302.275 447.23 298.5 454C291.536 472.368 289.036 491.368 291 511C291.772 514.952 292.105 518.952 292 523C291.667 523 291.333 523 291 523C288.652 523.17 286.318 523.503 284 524C282.47 524.14 281.47 524.807 281 526C280 526 279 526 278 526C274.471 526.057 271.471 527.057 269 529C264.135 529.092 259.801 530.425 256 533C254.301 532.84 252.634 533.006 251 533.5C244.896 535.354 239.23 537.854 234 541C222.18 545.042 210.847 550.209 200 556.5C192.922 557.944 186.755 561.111 181.5 566C169.178 571.022 157.345 576.855 146 583.5C143.333 585.5 140.667 587.5 138 589.5C137 590.167 136 590.167 135 589.5C136.138 585.375 138.305 581.875 141.5 579C145.125 571.214 148.959 563.547 153 556C156.026 552.589 158.526 548.922 160.5 545C169.34 527.401 178.34 510.068 187.5 493C191.71 487.914 194.876 482.247 197 476C226.435 424.241 254.102 371.574 280 318C280.586 317.791 281.086 317.457 281.5 317C286.19 321.512 291.356 325.512 297 329C303.214 331.681 309.047 335.014 314.5 339C315.94 339.648 317.44 339.981 319 340C322.329 342.764 326.163 344.764 330.5 346C332.326 345.49 332.493 344.656 331 343.5C328.45 341.781 325.783 340.281 323 339C317.43 332.958 311.097 327.958 304 324C304 323 304 322 304 321C301.665 320.087 299.499 318.753 297.5 317C293.284 313.11 289.784 308.61 287 303.5C302.936 267.704 318.102 231.537 332.5 195C333.423 193.741 334.257 192.408 335 191C335.586 191.209 336.086 191.543 336.5 192C341.802 203.63 346.635 215.297 351 227Z" fill="white"/>
    </svg>
    