<svg width="669" height="793" viewBox="0 0 669 793" fill="none" xmlns="http://www.w3.org/2000/svg">
    <path d="M332.875 0L0 197.609V593.298L333.792 792.789L668.5 593.298V197.609L332.875 0Z" fill="black"/>
    <path fill-rule="evenodd" clip-rule="evenodd" d="M351 233C351.255 235.467 352.255 237.467 354 239C355.999 243.997 357.999 248.997 360 254C360.092 256.348 361.092 258.014 363 259C367.128 270.786 372.295 282.119 378.5 293C379.626 297.906 381.292 302.573 383.5 307C385.906 311.851 388.573 316.517 391.5 321C391.833 322.667 392.167 324.333 392.5 326C407.001 354.029 421.501 382.029 436 410C436.092 412.348 437.092 414.014 439 415C439 415.333 439 415.667 439 416C439.092 418.348 440.092 420.014 442 421C451.09 439.492 460.756 457.825 471 476C471.092 478.348 472.092 480.014 474 481C477.333 487.667 480.667 494.333 484 501C485.667 504.667 484.667 505.667 481 504C472.005 499.693 462.838 495.693 453.5 492C451.734 491.267 449.901 490.933 448 491C447.889 490.383 447.556 489.883 447 489.5C444.015 488.632 441.015 488.299 438 488.5C438.971 489.981 440.304 490.815 442 491C451.262 496.843 460.595 502.509 470 508C480.949 516.279 491.616 524.946 502 534C509.688 548.967 517.521 563.967 525.5 579C529.561 583.682 532.394 589.015 534 595C518.206 586.674 502.206 578.34 486 570C485.014 568.092 483.348 567.092 481 567C448.717 550.082 414.717 537.415 379 529C379.521 525.019 379.854 521.019 380 517C381.325 513.055 381.992 508.722 382 504C381.992 499.278 381.325 494.945 380 491C379.01 468.311 370.01 449.645 353 435C349.841 432.293 346.174 430.959 342 431C340.103 429.695 337.769 429.029 335 429C332.231 429.029 329.897 429.695 328 431C321.418 432.578 315.752 435.745 311 440.5C306.442 446.73 302.275 453.23 298.5 460C291.536 478.368 289.036 497.368 291 517C291.772 520.952 292.105 524.952 292 529C291.667 529 291.333 529 291 529C288.652 529.17 286.318 529.503 284 530C282.47 530.14 281.47 530.807 281 532C280 532 279 532 278 532C274.471 532.057 271.471 533.057 269 535C264.135 535.092 259.801 536.425 256 539C254.301 538.84 252.634 539.006 251 539.5C244.896 541.354 239.23 543.854 234 547C222.18 551.042 210.847 556.209 200 562.5C192.922 563.944 186.755 567.111 181.5 572C169.178 577.022 157.345 582.855 146 589.5C143.333 591.5 140.667 593.5 138 595.5C137 596.167 136 596.167 135 595.5C136.138 591.375 138.305 587.875 141.5 585C145.125 577.214 148.959 569.547 153 562C156.026 558.589 158.526 554.922 160.5 551C169.34 533.401 178.34 516.068 187.5 499C191.71 493.914 194.876 488.247 197 482C226.435 430.241 254.102 377.574 280 324C280.586 323.791 281.086 323.457 281.5 323C286.19 327.512 291.356 331.512 297 335C303.214 337.681 309.047 341.014 314.5 345C315.94 345.648 317.44 345.981 319 346C322.329 348.764 326.163 350.764 330.5 352C332.326 351.49 332.493 350.656 331 349.5C328.45 347.781 325.783 346.281 323 345C317.43 338.958 311.097 333.958 304 330C304 329 304 328 304 327C301.665 326.087 299.499 324.753 297.5 323C293.284 319.11 289.784 314.61 287 309.5C302.936 273.704 318.102 237.537 332.5 201C333.423 199.741 334.257 198.408 335 197C335.586 197.209 336.086 197.543 336.5 198C341.802 209.63 346.635 221.297 351 233Z" fill="white"/>
    </svg>
    