<?xml version="1.0" encoding="UTF-8"?>
<!DOCTYPE svg PUBLIC "-//W3C//DTD SVG 1.1//EN" "http://www.w3.org/Graphics/SVG/1.1/DTD/svg11.dtd">
<svg xmlns="http://www.w3.org/2000/svg" version="1.1" width="1024px" height="1024px" style="shape-rendering:geometricPrecision; text-rendering:geometricPrecision; image-rendering:optimizeQuality; fill-rule:evenodd; clip-rule:evenodd" xmlns:xlink="http://www.w3.org/1999/xlink">
<g><path style="opacity:0.054" fill="#000001" d="M 505.5,74.5 C 510.534,74.3362 515.534,74.6695 520.5,75.5C 525.911,77.3564 531.078,79.6897 536,82.5C 601.962,121.319 668.128,159.486 734.5,197C 759.623,212.69 785.123,227.857 811,242.5C 832.258,254.056 853.425,265.889 874.5,278C 878.959,281.415 883.292,284.915 887.5,288.5C 890.341,292.857 892.507,297.523 894,302.5C 894.667,441.833 894.667,581.167 894,720.5C 891.43,730.824 885.597,738.657 876.5,744C 761.374,810.156 646.54,876.656 532,943.5C 522.559,948.429 512.559,949.762 502,947.5C 495.062,944.399 488.229,941.066 481.5,937.5C 370.802,873.143 259.802,808.976 148.5,745C 145.616,742.454 142.449,740.287 139,738.5C 135.603,733.485 132.77,728.151 130.5,722.5C 129.167,581.833 129.167,441.167 130.5,300.5C 135.931,287.236 145.431,278.236 159,273.5C 214.764,240.251 270.93,207.751 327.5,176C 331.806,173.407 335.973,170.574 340,167.5C 357.553,157.333 375.387,147.5 393.5,138C 426.091,118.001 459.091,98.5014 492.5,79.5C 497.163,78.2699 501.496,76.6032 505.5,74.5 Z"/></g>
<g><path style="opacity:1" fill="#{{backgroundColor}}" d="M 874.5,291.5 C 875.827,362.192 876.494,433.025 876.5,504C 876.497,574.873 876.163,645.707 875.5,716.5C 826.227,745.917 776.561,774.584 726.5,802.5C 724.973,802.427 723.973,803.094 723.5,804.5C 666.38,838.11 608.88,871.11 551,903.5C 547.583,906.057 544.083,908.557 540.5,911C 531.919,914.778 523.752,919.278 516,924.5C 513,925.833 510,925.833 507,924.5C 497.473,918.664 487.973,912.83 478.5,907C 465.477,900.422 452.811,893.089 440.5,885C 436.859,883.381 433.193,881.714 429.5,880C 335.519,825.603 241.519,771.103 147.5,716.5C 146.5,574.835 146.167,433.168 146.5,291.5C 149.737,290.454 152.904,289.121 156,287.5C 194.354,264.816 232.854,242.483 271.5,220.5C 273.027,220.573 274.027,219.906 274.5,218.5C 353.292,172.686 432.292,127.353 511.5,82.5C 514.45,83.6355 517.45,84.8022 520.5,86C 541.976,99.4533 563.976,112.12 586.5,124C 588.338,125.84 590.338,127.507 592.5,129C 612.586,139.81 632.586,150.81 652.5,162C 654.338,163.84 656.338,165.507 658.5,167C 730.894,208.223 802.894,249.723 874.5,291.5 Z"/></g>
<g><path style="opacity:0.102" fill="#12435f" d="M 274.5,218.5 C 274.027,219.906 273.027,220.573 271.5,220.5C 271.973,219.094 272.973,218.427 274.5,218.5 Z"/></g>
<g><path style="opacity:1" fill="#{{iconColor}}" d="M 527.5,335.5 C 527.755,337.967 528.755,339.967 530.5,341.5C 532.499,346.497 534.499,351.497 536.5,356.5C 536.592,358.848 537.592,360.514 539.5,361.5C 543.628,373.286 548.795,384.619 555,395.5C 556.126,400.406 557.792,405.073 560,409.5C 562.406,414.351 565.073,419.017 568,423.5C 568.333,425.167 568.667,426.833 569,428.5C 583.501,456.529 598.001,484.529 612.5,512.5C 612.592,514.848 613.592,516.514 615.5,517.5C 615.5,517.833 615.5,518.167 615.5,518.5C 615.592,520.848 616.592,522.514 618.5,523.5C 627.59,541.992 637.256,560.325 647.5,578.5C 647.592,580.848 648.592,582.514 650.5,583.5C 653.833,590.167 657.167,596.833 660.5,603.5C 662.167,607.167 661.167,608.167 657.5,606.5C 648.505,602.193 639.338,598.193 630,594.5C 628.234,593.767 626.401,593.433 624.5,593.5C 624.389,592.883 624.056,592.383 623.5,592C 620.515,591.132 617.515,590.799 614.5,591C 615.471,592.481 616.804,593.315 618.5,593.5C 627.762,599.343 637.095,605.009 646.5,610.5C 657.449,618.779 668.116,627.446 678.5,636.5C 686.188,651.467 694.021,666.467 702,681.5C 706.061,686.182 708.894,691.515 710.5,697.5C 694.706,689.174 678.706,680.84 662.5,672.5C 661.514,670.592 659.848,669.592 657.5,669.5C 625.217,652.582 591.217,639.915 555.5,631.5C 556.021,627.519 556.354,623.519 556.5,619.5C 557.825,615.555 558.492,611.222 558.5,606.5C 558.492,601.778 557.825,597.445 556.5,593.5C 555.51,570.811 546.51,552.145 529.5,537.5C 526.341,534.793 522.674,533.459 518.5,533.5C 516.603,532.195 514.269,531.529 511.5,531.5C 508.731,531.529 506.397,532.195 504.5,533.5C 497.918,535.078 492.252,538.245 487.5,543C 482.942,549.23 478.775,555.73 475,562.5C 468.036,580.868 465.536,599.868 467.5,619.5C 468.272,623.452 468.605,627.452 468.5,631.5C 468.167,631.5 467.833,631.5 467.5,631.5C 465.152,631.67 462.818,632.003 460.5,632.5C 458.97,632.64 457.97,633.307 457.5,634.5C 456.5,634.5 455.5,634.5 454.5,634.5C 450.971,634.557 447.971,635.557 445.5,637.5C 440.635,637.592 436.301,638.925 432.5,641.5C 430.801,641.34 429.134,641.506 427.5,642C 421.396,643.854 415.73,646.354 410.5,649.5C 398.68,653.542 387.347,658.709 376.5,665C 369.422,666.444 363.255,669.611 358,674.5C 345.678,679.522 333.845,685.355 322.5,692C 319.833,694 317.167,696 314.5,698C 313.5,698.667 312.5,698.667 311.5,698C 312.638,693.875 314.805,690.375 318,687.5C 321.625,679.714 325.459,672.047 329.5,664.5C 332.526,661.089 335.026,657.422 337,653.5C 345.84,635.901 354.84,618.568 364,601.5C 368.21,596.414 371.376,590.747 373.5,584.5C 402.935,532.741 430.602,480.074 456.5,426.5C 457.086,426.291 457.586,425.957 458,425.5C 462.69,430.012 467.856,434.012 473.5,437.5C 479.714,440.181 485.547,443.514 491,447.5C 492.44,448.148 493.94,448.481 495.5,448.5C 498.829,451.264 502.663,453.264 507,454.5C 508.826,453.99 508.993,453.156 507.5,452C 504.95,450.281 502.283,448.781 499.5,447.5C 493.93,441.458 487.597,436.458 480.5,432.5C 480.5,431.5 480.5,430.5 480.5,429.5C 478.165,428.587 475.999,427.253 474,425.5C 469.784,421.61 466.284,417.11 463.5,412C 479.436,376.204 494.602,340.037 509,303.5C 509.923,302.241 510.757,300.908 511.5,299.5C 512.086,299.709 512.586,300.043 513,300.5C 518.302,312.13 523.135,323.797 527.5,335.5 Z"/></g>
<g><path style="opacity:1" fill="#9bcde9" d="M 527.5,335.5 C 529.379,336.895 530.379,338.895 530.5,341.5C 528.755,339.967 527.755,337.967 527.5,335.5 Z"/></g>
<g><path style="opacity:1" fill="#8ac4e6" d="M 536.5,356.5 C 538.408,357.486 539.408,359.152 539.5,361.5C 537.592,360.514 536.592,358.848 536.5,356.5 Z"/></g>
<g><path style="opacity:1" fill="#63b0dd" d="M 499.5,447.5 C 502.283,448.781 504.95,450.281 507.5,452C 508.993,453.156 508.826,453.99 507,454.5C 502.663,453.264 498.829,451.264 495.5,448.5C 496.583,448.539 497.583,448.873 498.5,449.5C 499.298,449.043 499.631,448.376 499.5,447.5 Z"/></g>
<g><path style="opacity:1" fill="#8ac4e6" d="M 612.5,512.5 C 614.408,513.486 615.408,515.152 615.5,517.5C 613.592,516.514 612.592,514.848 612.5,512.5 Z"/></g>
<g><path style="opacity:1" fill="#98cbe9" d="M 615.5,518.5 C 617.408,519.486 618.408,521.152 618.5,523.5C 616.592,522.514 615.592,520.848 615.5,518.5 Z"/></g>
<g><path style="opacity:1" fill="#95cbe9" d="M 518.5,533.5 C 513.778,532.377 509.112,532.377 504.5,533.5C 506.397,532.195 508.731,531.529 511.5,531.5C 514.269,531.529 516.603,532.195 518.5,533.5 Z"/></g>
<g><path style="opacity:0.457" fill="#1a75a8" d="M 874.5,291.5 C 875.5,291.5 876.5,291.5 877.5,291.5C 878.165,433.504 877.498,575.171 875.5,716.5C 876.163,645.707 876.497,574.873 876.5,504C 876.494,433.025 875.827,362.192 874.5,291.5 Z"/></g>
<g><path style="opacity:1" fill="#89c4e6" d="M 647.5,578.5 C 649.408,579.486 650.408,581.152 650.5,583.5C 648.592,582.514 647.592,580.848 647.5,578.5 Z"/></g>
<g><path style="opacity:1" fill="#8ac5e6" d="M 624.5,593.5 C 622.347,592.427 620.347,592.427 618.5,593.5C 616.804,593.315 615.471,592.481 614.5,591C 617.515,590.799 620.515,591.132 623.5,592C 624.056,592.383 624.389,592.883 624.5,593.5 Z"/></g>
<g><path style="opacity:1" fill="#aad4ed" d="M 660.5,603.5 C 662.614,604.784 663.614,606.784 663.5,609.5C 660.784,609.614 658.784,608.614 657.5,606.5C 661.167,608.167 662.167,607.167 660.5,603.5 Z"/></g>
<g><path style="opacity:1" fill="#89c4e6" d="M 556.5,593.5 C 557.825,597.445 558.492,601.778 558.5,606.5C 558.492,611.222 557.825,615.555 556.5,619.5C 556.5,610.833 556.5,602.167 556.5,593.5 Z"/></g>
<g><path style="opacity:1" fill="#aed6ee" d="M 467.5,619.5 C 469.265,622.544 470.265,626.044 470.5,630C 470.164,631.03 469.497,631.53 468.5,631.5C 468.605,627.452 468.272,623.452 467.5,619.5 Z"/></g>
<g><path style="opacity:1" fill="#93cae8" d="M 467.5,631.5 C 464.417,632.993 461.083,633.993 457.5,634.5C 457.97,633.307 458.97,632.64 460.5,632.5C 462.818,632.003 465.152,631.67 467.5,631.5 Z"/></g>
<g><path style="opacity:1" fill="#74b9e1" d="M 454.5,634.5 C 454.209,635.649 453.376,636.316 452,636.5C 449.863,637.077 447.696,637.41 445.5,637.5C 447.971,635.557 450.971,634.557 454.5,634.5 Z"/></g>
<g><path style="opacity:1" fill="#64afdd" d="M 432.5,641.5 C 427.087,644.446 421.42,646.946 415.5,649C 413.866,649.494 412.199,649.66 410.5,649.5C 415.73,646.354 421.396,643.854 427.5,642C 429.134,641.506 430.801,641.34 432.5,641.5 Z"/></g>
<g><path style="opacity:1" fill="#83c1e4" d="M 657.5,669.5 C 659.848,669.592 661.514,670.592 662.5,672.5C 660.152,672.408 658.486,671.408 657.5,669.5 Z"/></g>
<g><path style="opacity:0.337" fill="#0e435f" d="M 726.5,802.5 C 726.027,803.906 725.027,804.573 723.5,804.5C 723.973,803.094 724.973,802.427 726.5,802.5 Z"/></g>
</svg>
